<svg width="20" height="20" viewBox="0 0 20 20" fill="none" xmlns="http://www.w3.org/2000/svg">
<path d="M9.99992 2.08334C7.24283 2.08334 4.99992 4.32626 4.99992 7.08334C4.99992 9.08543 7.47509 12.5751 8.95093 14.4767C9.20426 14.8034 9.587 14.9911 9.99992 14.9911C10.4128 14.9911 10.7956 14.8034 11.0489 14.4767C12.5247 12.5751 14.9999 9.08543 14.9999 7.08334C14.9999 4.32626 12.757 2.08334 9.99992 2.08334ZM9.99992 5.83334C10.6903 5.83334 11.2499 6.39293 11.2499 7.08334C11.2499 7.77376 10.6903 8.33334 9.99992 8.33334C9.3095 8.33334 8.74992 7.77376 8.74992 7.08334C8.74992 6.39293 9.3095 5.83334 9.99992 5.83334ZM4.88517 12.5C4.30934 12.5 3.7855 12.8401 3.55216 13.3659L2.62687 15.4492C2.42562 15.9021 2.46592 16.4205 2.73592 16.8359C3.00634 17.2518 3.46365 17.5 3.95906 17.5H16.04C16.5354 17.5 16.9931 17.2518 17.2631 16.8359C17.5335 16.4205 17.5742 15.9026 17.373 15.4492L16.4477 13.3659C16.2139 12.8401 15.6909 12.5 15.1147 12.5H13.7581C13.4926 12.9021 13.2046 13.3183 12.8938 13.75H15.1147C15.1967 13.75 15.2718 13.7983 15.3051 13.8737L16.2304 15.957C16.2704 16.047 16.2383 16.1202 16.2149 16.1556C16.1916 16.191 16.1391 16.25 16.0408 16.25H3.95906C3.86073 16.25 3.80701 16.1902 3.7841 16.1548C3.76118 16.1194 3.72905 16.047 3.76863 15.957L4.69474 13.8737C4.72807 13.7987 4.80309 13.75 4.88517 13.75H7.10522C6.79397 13.3183 6.50678 12.9021 6.24178 12.5H4.88517Z" fill="#969CBF"/>
</svg>
