<svg width="20" height="20" viewBox="0 0 20 20" fill="none" xmlns="http://www.w3.org/2000/svg">
<path d="M10.0001 1.66667C5.40762 1.66667 1.66675 5.40754 1.66675 10C1.66675 14.5925 5.40762 18.3333 10.0001 18.3333C11.0284 18.3333 12.0169 18.1463 12.9281 17.8044C13.0328 17.7676 13.129 17.7102 13.2112 17.6358C13.2934 17.5613 13.3599 17.4711 13.4068 17.3706C13.4537 17.2701 13.4801 17.1612 13.4844 17.0504C13.4887 16.9396 13.4708 16.829 13.4318 16.7251C13.3928 16.6213 13.3334 16.5263 13.2572 16.4457C13.1811 16.3651 13.0895 16.3005 12.9881 16.2557C12.8866 16.2109 12.7772 16.1868 12.6663 16.1849C12.5554 16.1829 12.4452 16.2031 12.3422 16.2443C11.6143 16.5174 10.8268 16.6667 10.0001 16.6667C6.30838 16.6667 3.33341 13.6917 3.33341 10C3.33341 6.3083 6.30838 3.33334 10.0001 3.33334C13.6918 3.33334 16.6667 6.3083 16.6667 10V10.8333C16.6667 11.7639 15.9306 12.5 15.0001 12.5C14.0695 12.5 13.3334 11.7639 13.3334 10.8333V10V6.66667C13.3351 6.45525 13.2563 6.2511 13.1131 6.09557C12.9698 5.94005 12.7729 5.84477 12.562 5.82905C12.3512 5.81332 12.1422 5.87832 11.9775 6.01088C11.8128 6.14344 11.7046 6.33364 11.6749 6.54297C11.0832 6.09804 10.368 5.83334 9.58342 5.83334C7.45853 5.83334 5.83342 7.76661 5.83342 10C5.83342 12.2334 7.45853 14.1667 9.58342 14.1667C10.6901 14.1667 11.6583 13.6395 12.3349 12.8215C12.9446 13.6349 13.913 14.1667 15.0001 14.1667C16.8312 14.1667 18.3334 12.6645 18.3334 10.8333V10C18.3334 5.40754 14.5925 1.66667 10.0001 1.66667ZM9.58342 7.50001C10.6752 7.50001 11.6667 8.55756 11.6667 10C11.6667 11.4424 10.6752 12.5 9.58342 12.5C8.49163 12.5 7.50008 11.4424 7.50008 10C7.50008 8.55756 8.49163 7.50001 9.58342 7.50001Z" fill="#969CBF"/>
</svg>
