<svg width="20" height="20" viewBox="0 0 20 20" fill="none" xmlns="http://www.w3.org/2000/svg">
<path d="M9.99996 1.66675C5.4075 1.66675 1.66663 5.40762 1.66663 10.0001C1.66663 14.5925 5.4075 18.3334 9.99996 18.3334C11.0283 18.3334 12.0167 18.1463 12.928 17.8044C13.0327 17.7676 13.1289 17.7103 13.2111 17.6358C13.2933 17.5613 13.3598 17.4712 13.4067 17.3707C13.4536 17.2702 13.48 17.1613 13.4842 17.0505C13.4885 16.9396 13.4707 16.8291 13.4317 16.7252C13.3927 16.6214 13.3333 16.5264 13.2571 16.4458C13.1809 16.3652 13.0894 16.3006 12.9879 16.2558C12.8865 16.211 12.7771 16.1869 12.6662 16.185C12.5553 16.183 12.4451 16.2032 12.3421 16.2444C11.6142 16.5175 10.8266 16.6667 9.99996 16.6667C6.30826 16.6667 3.33329 13.6918 3.33329 10.0001C3.33329 6.30838 6.30826 3.33341 9.99996 3.33341C13.6917 3.33341 16.6666 6.30838 16.6666 10.0001V10.8334C16.6666 11.764 15.9305 12.5001 15 12.5001C14.0694 12.5001 13.3333 11.764 13.3333 10.8334V10.0001V6.66675C13.3349 6.45532 13.2562 6.25117 13.113 6.09565C12.9697 5.94012 12.7727 5.84485 12.5619 5.82912C12.351 5.8134 12.1421 5.8784 11.9774 6.01095C11.8127 6.14351 11.7045 6.33372 11.6748 6.54305C11.0831 6.09812 10.3679 5.83342 9.58329 5.83342C7.45841 5.83342 5.83329 7.76669 5.83329 10.0001C5.83329 12.2335 7.45841 14.1667 9.58329 14.1667C10.6899 14.1667 11.6582 13.6396 12.3348 12.8215C12.9445 13.635 13.9129 14.1667 15 14.1667C16.8311 14.1667 18.3333 12.6645 18.3333 10.8334V10.0001C18.3333 5.40762 14.5924 1.66675 9.99996 1.66675ZM9.58329 7.50008C10.6751 7.50008 11.6666 8.55764 11.6666 10.0001C11.6666 11.4425 10.6751 12.5001 9.58329 12.5001C8.49151 12.5001 7.49996 11.4425 7.49996 10.0001C7.49996 8.55764 8.49151 7.50008 9.58329 7.50008Z" fill="#F64B4B"/>
</svg>
