<svg width="20" height="20" viewBox="0 0 20 20" fill="none" xmlns="http://www.w3.org/2000/svg">
<path d="M6.87468 1.66663C5.61889 1.66663 4.58301 2.70251 4.58301 3.95829V16.0416C4.58301 17.2974 5.61889 18.3333 6.87468 18.3333H13.1247C14.3805 18.3333 15.4164 17.2974 15.4164 16.0416V3.95829C15.4164 2.70251 14.3805 1.66663 13.1247 1.66663H6.87468ZM6.87468 3.33329H7.52979L7.77393 3.82157C7.88018 4.03324 8.09635 4.16663 8.33301 4.16663H11.6663C11.903 4.16663 12.1192 4.03324 12.2254 3.82157L12.4696 3.33329H13.1247C13.4797 3.33329 13.7497 3.60324 13.7497 3.95829V16.0416C13.7497 16.3967 13.4797 16.6666 13.1247 16.6666H6.87468C6.51962 16.6666 6.24968 16.3967 6.24968 16.0416V3.95829C6.24968 3.60324 6.51962 3.33329 6.87468 3.33329Z" fill="#969CBF"/>
</svg>
