<svg width="20" height="20" viewBox="0 0 20 20" fill="none" xmlns="http://www.w3.org/2000/svg">
<path d="M9.99992 1.66666C8.16634 1.66666 6.66658 3.16641 6.66658 4.99999V6.66666H5.20825C4.1745 6.66666 3.33325 7.50791 3.33325 8.54166V16.4583C3.33325 17.4921 4.1745 18.3333 5.20825 18.3333H14.7916C15.8253 18.3333 16.6666 17.4921 16.6666 16.4583V8.54166C16.6666 7.50791 15.8253 6.66666 14.7916 6.66666H13.3333V4.99999C13.3333 3.16641 11.8335 1.66666 9.99992 1.66666ZM9.99992 2.91666C11.158 2.91666 12.0833 3.8419 12.0833 4.99999V6.66666H7.91658V4.99999C7.91658 3.8419 8.84183 2.91666 9.99992 2.91666ZM7.08325 11.6667C7.54367 11.6667 7.91658 12.0396 7.91658 12.5C7.91658 12.9604 7.54367 13.3333 7.08325 13.3333C6.62283 13.3333 6.24992 12.9604 6.24992 12.5C6.24992 12.0396 6.62283 11.6667 7.08325 11.6667ZM9.99992 11.6667C10.4603 11.6667 10.8333 12.0396 10.8333 12.5C10.8333 12.9604 10.4603 13.3333 9.99992 13.3333C9.5395 13.3333 9.16658 12.9604 9.16658 12.5C9.16658 12.0396 9.5395 11.6667 9.99992 11.6667ZM12.9166 11.6667C13.377 11.6667 13.7499 12.0396 13.7499 12.5C13.7499 12.9604 13.377 13.3333 12.9166 13.3333C12.4562 13.3333 12.0833 12.9604 12.0833 12.5C12.0833 12.0396 12.4562 11.6667 12.9166 11.6667Z" fill="#969CBF"/>
</svg>
