<svg width="20" height="20" viewBox="0 0 20 20" fill="none" xmlns="http://www.w3.org/2000/svg">
<path d="M10 1.66675C8.16646 1.66675 6.66671 3.1665 6.66671 5.00008V6.66675H5.20837C4.17462 6.66675 3.33337 7.508 3.33337 8.54175V16.4584C3.33337 17.4922 4.17462 18.3334 5.20837 18.3334H14.7917C15.8255 18.3334 16.6667 17.4922 16.6667 16.4584V8.54175C16.6667 7.508 15.8255 6.66675 14.7917 6.66675H13.3334V5.00008C13.3334 3.1665 11.8336 1.66675 10 1.66675ZM10 2.91675C11.1581 2.91675 12.0834 3.84199 12.0834 5.00008V6.66675H7.91671V5.00008C7.91671 3.84199 8.84195 2.91675 10 2.91675ZM7.08337 11.6667C7.54379 11.6667 7.91671 12.0397 7.91671 12.5001C7.91671 12.9605 7.54379 13.3334 7.08337 13.3334C6.62296 13.3334 6.25004 12.9605 6.25004 12.5001C6.25004 12.0397 6.62296 11.6667 7.08337 11.6667ZM10 11.6667C10.4605 11.6667 10.8334 12.0397 10.8334 12.5001C10.8334 12.9605 10.4605 13.3334 10 13.3334C9.53962 13.3334 9.16671 12.9605 9.16671 12.5001C9.16671 12.0397 9.53962 11.6667 10 11.6667ZM12.9167 11.6667C13.3771 11.6667 13.75 12.0397 13.75 12.5001C13.75 12.9605 13.3771 13.3334 12.9167 13.3334C12.4563 13.3334 12.0834 12.9605 12.0834 12.5001C12.0834 12.0397 12.4563 11.6667 12.9167 11.6667Z" fill="#F64B4B"/>
</svg>
