<svg width="16" height="16" viewBox="0 0 16 16" fill="none" xmlns="http://www.w3.org/2000/svg">
<path d="M12.9944 2.32358C12.8183 2.32774 12.6509 2.40147 12.5289 2.52866L8.0003 7.0573L3.47166 2.52866C3.40945 2.46472 3.33505 2.41391 3.25286 2.37924C3.17066 2.34457 3.08235 2.32675 2.99314 2.32684C2.86057 2.327 2.73106 2.36668 2.62116 2.4408C2.51125 2.51493 2.42594 2.62014 2.37611 2.74298C2.32629 2.86583 2.31422 3.00074 2.34144 3.13048C2.36867 3.26023 2.43395 3.37891 2.52895 3.47137L7.05759 8.00001L2.52895 12.5287C2.46496 12.5901 2.41388 12.6637 2.37869 12.7451C2.3435 12.8265 2.32491 12.9141 2.32401 13.0028C2.32311 13.0915 2.33991 13.1795 2.37344 13.2616C2.40696 13.3437 2.45654 13.4183 2.51926 13.4811C2.58198 13.5438 2.65658 13.5934 2.7387 13.6269C2.82082 13.6604 2.9088 13.6772 2.99749 13.6763C3.08619 13.6754 3.17381 13.6568 3.25523 13.6216C3.33665 13.5864 3.41023 13.5353 3.47166 13.4714L8.0003 8.94272L12.5289 13.4714C12.5904 13.5354 12.664 13.5864 12.7454 13.6216C12.8268 13.6568 12.9144 13.6754 13.0031 13.6763C13.0918 13.6772 13.1798 13.6604 13.2619 13.6269C13.344 13.5934 13.4186 13.5438 13.4813 13.4811C13.5441 13.4183 13.5936 13.3437 13.6272 13.2616C13.6607 13.1795 13.6775 13.0915 13.6766 13.0028C13.6757 12.9141 13.6571 12.8265 13.6219 12.7451C13.5867 12.6637 13.5356 12.5901 13.4717 12.5287L8.94301 8.00001L13.4717 3.47137C13.5687 3.37835 13.6353 3.25818 13.6628 3.12662C13.6903 2.99507 13.6774 2.85827 13.6258 2.73416C13.5742 2.61006 13.4863 2.50445 13.3737 2.43118C13.261 2.35791 13.1288 2.3204 12.9944 2.32358Z" fill="#B6BAD2"/>
</svg>
