<svg width="48" height="48" viewBox="0 0 48 48" fill="none" xmlns="http://www.w3.org/2000/svg">
<circle cx="24" cy="24" r="24" fill="#DEDEDE"/>
<path d="M24.0004 8.49228C15.4504 8.49228 8.49268 15.45 8.49268 24C8.49268 32.55 15.4504 39.5077 24.0004 39.5077C32.5504 39.5077 39.5081 32.55 39.5081 24C39.5081 23.5096 39.4706 23.0336 39.4388 22.673C39.4186 22.4134 39.2629 22.1884 39.0321 22.073C38.8013 21.9577 38.5244 21.9721 38.3081 22.1105C37.8869 22.3817 37.4081 22.523 36.9234 22.523C35.8619 22.523 34.9215 21.8827 34.5263 20.8932C34.4484 20.6971 34.2898 20.5413 34.0936 20.4692C33.8946 20.4 33.6754 20.4144 33.4879 20.5154C32.8475 20.8615 32.1206 21.0461 31.385 21.0461C28.9417 21.0461 26.9542 19.0586 26.9542 16.6154C26.9542 15.8827 27.1388 15.1529 27.485 14.5125C27.5859 14.325 27.6033 14.1057 27.5311 13.9067C27.459 13.7105 27.3061 13.5519 27.11 13.474C26.1177 13.0788 25.4773 12.1384 25.4773 11.0769C25.4773 10.5923 25.6186 10.1134 25.8898 9.69228C26.0283 9.47305 26.0427 9.19901 25.9273 8.96824C25.8119 8.73747 25.584 8.5817 25.3273 8.55863C24.9379 8.52401 24.4763 8.49228 24.0004 8.49228ZM21.4158 16.6154C22.0273 16.6154 22.5234 17.1115 22.5234 17.723C22.5234 18.3346 22.0273 18.8307 21.4158 18.8307C20.8042 18.8307 20.3081 18.3346 20.3081 17.723C20.3081 17.1115 20.8042 16.6154 21.4158 16.6154ZM16.6158 20.3077C17.8388 20.3077 18.8311 21.3 18.8311 22.523C18.8311 23.7461 17.8388 24.7384 16.6158 24.7384C15.3927 24.7384 14.4004 23.7461 14.4004 22.523C14.4004 21.3 15.3927 20.3077 16.6158 20.3077ZM23.6311 23.2615C24.2427 23.2615 24.7388 23.7577 24.7388 24.3692C24.7388 24.9807 24.2427 25.4769 23.6311 25.4769C23.0196 25.4769 22.5234 24.9807 22.5234 24.3692C22.5234 23.7577 23.0196 23.2615 23.6311 23.2615ZM18.0927 28.4307C18.909 28.4307 19.5696 29.0913 19.5696 29.9077C19.5696 30.724 18.909 31.3846 18.0927 31.3846C17.2763 31.3846 16.6158 30.724 16.6158 29.9077C16.6158 29.0913 17.2763 28.4307 18.0927 28.4307ZM28.0619 29.1692C29.0831 29.1692 29.9081 29.9942 29.9081 31.0154C29.9081 32.0365 29.0831 32.8615 28.0619 32.8615C27.0408 32.8615 26.2158 32.0365 26.2158 31.0154C26.2158 29.9942 27.0408 29.1692 28.0619 29.1692Z" fill="#2B2E44"/>
</svg>
