<svg width="283" height="45" viewBox="0 0 283 45" fill="none" xmlns="http://www.w3.org/2000/svg">
<path d="M66.4545 16.6641H69.7358C69.3182 13.6438 66.6559 11.5185 63.2031 11.5185C59.1687 11.5185 56.0589 14.4268 56.0589 19.3786C56.0589 24.2109 58.9673 27.2088 63.2702 27.2088C67.1257 27.2088 69.8775 24.7702 69.8775 20.7507V18.8267H63.4865V21.2578H66.7678C66.723 23.152 65.4329 24.3526 63.2852 24.3526C60.8615 24.3526 59.3327 22.5405 59.3327 19.3487C59.3327 16.1719 60.9212 14.3746 63.2553 14.3746C64.9183 14.3746 66.0444 15.2322 66.4545 16.6641ZM86.5478 19.3636C86.5478 14.3672 83.4455 11.5185 79.3962 11.5185C75.3244 11.5185 72.2445 14.3672 72.2445 19.3636C72.2445 24.3377 75.3244 27.2088 79.3962 27.2088C83.4455 27.2088 86.5478 24.3601 86.5478 19.3636ZM83.274 19.3636C83.274 22.6001 81.7378 24.3526 79.3962 24.3526C77.0471 24.3526 75.5183 22.6001 75.5183 19.3636C75.5183 16.1271 77.0471 14.3746 79.3962 14.3746C81.7378 14.3746 83.274 16.1271 83.274 19.3636ZM89.1498 27H98.9264V24.3377H92.3788V11.7273H89.1498V27ZM106.689 27C111.342 27 114.161 24.1214 114.161 19.3487C114.161 14.5909 111.342 11.7273 106.734 11.7273H101.275V27H106.689ZM104.504 24.2333V14.494H106.562C109.426 14.494 110.94 15.9556 110.94 19.3487C110.94 22.7567 109.426 24.2333 106.555 24.2333H104.504ZM116.763 27H127.084V24.3377H119.992V20.6911H126.525V18.0288H119.992V14.3896H127.054V11.7273H116.763V27ZM142.606 11.7273H139.392V21.3324H139.258L132.665 11.7273H129.832V27H133.061V17.3874H133.172L139.817 27H142.606V11.7273ZM150.554 27H160.331V24.3377H153.783V11.7273H150.554V27ZM165.908 11.7273H162.679V27H165.908V11.7273ZM182.81 19.3636C182.81 14.3672 179.708 11.5185 175.658 11.5185C171.586 11.5185 168.507 14.3672 168.507 19.3636C168.507 24.3377 171.586 27.2088 175.658 27.2088C179.708 27.2088 182.81 24.3601 182.81 19.3636ZM179.536 19.3636C179.536 22.6001 178 24.3526 175.658 24.3526C173.309 24.3526 171.78 22.6001 171.78 19.3636C171.78 16.1271 173.309 14.3746 175.658 14.3746C178 14.3746 179.536 16.1271 179.536 19.3636ZM198.186 11.7273H194.972V21.3324H194.838L188.246 11.7273H185.412V27H188.641V17.3874H188.753L195.397 27H198.186V11.7273Z" fill="#E6F64B"/>
<path d="M216.262 16.6641H219.543C219.125 13.6438 216.463 11.5185 213.01 11.5185C208.976 11.5185 205.866 14.4268 205.866 19.3786C205.866 24.2109 208.774 27.2088 213.077 27.2088C216.933 27.2088 219.685 24.7702 219.685 20.7507V18.8267H213.294V21.2578H216.575C216.53 23.152 215.24 24.3526 213.092 24.3526C210.669 24.3526 209.14 22.5405 209.14 19.3487C209.14 16.1719 210.728 14.3746 213.062 14.3746C214.725 14.3746 215.852 15.2322 216.262 16.6641ZM224.481 27L225.614 23.5174H231.125L232.259 27H235.719L230.454 11.7273H226.293L221.021 27H224.481ZM226.435 20.9968L228.314 15.2173H228.433L230.313 20.9968H226.435ZM237.767 11.7273V27H240.9V17.022H241.026L244.979 26.9254H247.112L251.064 17.0593H251.191V27H254.323V11.7273H250.341L246.135 21.9886H245.956L241.75 11.7273H237.767ZM257.193 27H267.514V24.3377H260.422V20.6911H266.955V18.0288H260.422V14.3896H267.484V11.7273H257.193V27ZM278.547 16.1197H281.642C281.597 13.3977 279.36 11.5185 275.959 11.5185C272.611 11.5185 270.157 13.3679 270.172 16.142C270.165 18.3942 271.753 19.6843 274.333 20.3033L275.996 20.7209C277.659 21.1236 278.584 21.6009 278.592 22.63C278.584 23.7486 277.525 24.5092 275.885 24.5092C274.207 24.5092 272.998 23.7337 272.894 22.2049H269.769C269.851 25.5085 272.215 27.2163 275.922 27.2163C279.65 27.2163 281.843 25.4339 281.85 22.6374C281.843 20.0945 279.926 18.7447 277.272 18.1481L275.899 17.82C274.572 17.5142 273.461 17.022 273.483 15.9258C273.483 14.9414 274.356 14.218 275.937 14.218C277.48 14.218 278.427 14.919 278.547 16.1197Z" fill="white"/>
<path d="M18.5403 8.19498L26.7928 5.67568L27.2025 10.7143L35.2793 11.3514L44 24.0839L37.7375 3.4749L23.6908 0L13.7736 7.40829L18.5403 8.19498Z" fill="#E6F64B"/>
<path d="M21.5469 0L11.2829 2.54826L7.88826 9.20849L12.3364 7.47104L21.5469 0Z" fill="#E6F64B"/>
<path d="M20.2377 13.2046L25.3881 11.5251L25.0955 7.06564L19.8865 9.20849L20.2377 13.2046Z" fill="#E6F64B"/>
<path d="M19.8865 14.0734L31.2409 26.9898L27.7292 42.2294L40.1372 21.6327L34.4629 12.7621L19.8865 14.0734Z" fill="#E6F64B"/>
<path d="M18.8915 15.3475L21.5469 32.4903L15.2043 37.8922L16.2578 45L26.7928 35.4468L28.7242 27.3523L18.8915 15.3475Z" fill="#E6F64B"/>
<path d="M18.8818 26.7568L8.67189 36.028L13.1363 43.5714L13.5525 36.982L19.4335 31.8352L18.8818 26.7568Z" fill="#E6F64B"/>
<path d="M18.1567 17.471L14.9311 15.3475L16.726 21.7696L12.3559 24.6525L6.52911 24.4466L3.82383 20.6371L7.3355 17.8829L2.34112 16.8533L8.19391 12.0419L8.71416 10.1351L0 17.1364L1.95093 20.6628L1.37867 21.8983L4.73426 24.9614L4.10996 29.8777L7.85576 35L18.781 25.9138L18.1567 17.471ZM8.24593 30.8301L5.67071 29.0798L6.39906 26.0425L11.9657 27.6126L8.24593 30.8301Z" fill="#E6F64B"/>
<path d="M16.8073 10.806L12.7591 10.9508L13.8906 8.79825L11.569 10.9025L11.9007 12.5145L9.69613 15.111L16.8073 10.806Z" fill="#E6F64B"/>
</svg>
