<svg width="32" height="32" viewBox="0 0 32 32" fill="none" xmlns="http://www.w3.org/2000/svg">
<path d="M3.66659 6C3.53407 5.99813 3.40251 6.02261 3.27954 6.07202C3.15658 6.12144 3.04465 6.1948 2.95028 6.28784C2.85591 6.38089 2.78098 6.49176 2.72983 6.61402C2.67868 6.73627 2.65234 6.86748 2.65234 7C2.65234 7.13253 2.67868 7.26373 2.72983 7.38599C2.78098 7.50824 2.85591 7.61912 2.95028 7.71216C3.04465 7.80521 3.15658 7.87857 3.27954 7.92798C3.40251 7.97739 3.53407 8.00188 3.66659 8H28.3333C28.4658 8.00188 28.5973 7.97739 28.7203 7.92798C28.8433 7.87857 28.9552 7.80521 29.0496 7.71216C29.1439 7.61912 29.2189 7.50824 29.27 7.38599C29.3212 7.26373 29.3475 7.13253 29.3475 7C29.3475 6.86748 29.3212 6.73627 29.27 6.61402C29.2189 6.49176 29.1439 6.38089 29.0496 6.28784C28.9552 6.1948 28.8433 6.12144 28.7203 6.07202C28.5973 6.02261 28.4658 5.99813 28.3333 6H3.66659ZM3.66659 15C3.53407 14.9981 3.40251 15.0226 3.27954 15.072C3.15658 15.1214 3.04465 15.1948 2.95028 15.2878C2.85591 15.3809 2.78098 15.4918 2.72983 15.614C2.67868 15.7363 2.65234 15.8675 2.65234 16C2.65234 16.1325 2.67868 16.2637 2.72983 16.386C2.78098 16.5082 2.85591 16.6191 2.95028 16.7122C3.04465 16.8052 3.15658 16.8786 3.27954 16.928C3.40251 16.9774 3.53407 17.0019 3.66659 17H28.3333C28.4658 17.0019 28.5973 16.9774 28.7203 16.928C28.8433 16.8786 28.9552 16.8052 29.0496 16.7122C29.1439 16.6191 29.2189 16.5082 29.27 16.386C29.3212 16.2637 29.3475 16.1325 29.3475 16C29.3475 15.8675 29.3212 15.7363 29.27 15.614C29.2189 15.4918 29.1439 15.3809 29.0496 15.2878C28.9552 15.1948 28.8433 15.1214 28.7203 15.072C28.5973 15.0226 28.4658 14.9981 28.3333 15H3.66659ZM3.66659 24C3.53407 23.9981 3.40251 24.0226 3.27954 24.072C3.15658 24.1214 3.04465 24.1948 2.95028 24.2878C2.85591 24.3809 2.78098 24.4918 2.72983 24.614C2.67868 24.7363 2.65234 24.8675 2.65234 25C2.65234 25.1325 2.67868 25.2637 2.72983 25.386C2.78098 25.5082 2.85591 25.6191 2.95028 25.7122C3.04465 25.8052 3.15658 25.8786 3.27954 25.928C3.40251 25.9774 3.53407 26.0019 3.66659 26H28.3333C28.4658 26.0019 28.5973 25.9774 28.7203 25.928C28.8433 25.8786 28.9552 25.8052 29.0496 25.7122C29.1439 25.6191 29.2189 25.5082 29.27 25.386C29.3212 25.2637 29.3475 25.1325 29.3475 25C29.3475 24.8675 29.3212 24.7363 29.27 24.614C29.2189 24.4918 29.1439 24.3809 29.0496 24.2878C28.9552 24.1948 28.8433 24.1214 28.7203 24.072C28.5973 24.0226 28.4658 23.9981 28.3333 24H3.66659Z" fill="#B6BAD2"/>
</svg>
