<svg width="67" height="67" viewBox="0 0 67 67" fill="none" xmlns="http://www.w3.org/2000/svg">
<circle cx="34" cy="34" r="22" fill="#2B2E44"/>
<path d="M33.5332 0.666504C15.3073 0.666504 0.533203 15.4406 0.533203 33.6665C0.533203 51.8924 15.3073 66.6665 33.5332 66.6665C51.7591 66.6665 66.5332 51.8924 66.5332 33.6665C66.5332 15.4406 51.7591 0.666504 33.5332 0.666504ZM26.2371 20.7211C26.6315 20.7211 27.0277 20.8149 27.394 21.0079L47.2811 31.4783C48.0978 31.9073 48.604 32.7474 48.6023 33.6697C48.6023 34.5921 48.0978 35.4289 47.2811 35.8579L27.394 46.3251C27.0294 46.5165 26.6315 46.6119 26.2371 46.6119C25.7949 46.6119 25.3553 46.4918 24.9609 46.2542C24.2118 45.8021 23.7653 45.0082 23.7653 44.1337V23.1993C23.7653 22.3248 24.2118 21.5309 24.9609 21.0788C25.3553 20.8396 25.7966 20.7211 26.2371 20.7211Z" fill="#E6F64B"/>
</svg>
